# xmcd
#
# Track frame offsets:
#	150
#	18489
#	30233
#	43523
#	58698
#	66529
#	78287
#	90956
#	103174
#	112025
#	126855
#	139805
#	146979
#	159194
#	173772
#	189359
#	194982
#	209488
#	222242
#	232956
#	239839
#	252251
#	256125
#	267597
#	277156
#	288360
#
# Disc length: 3990 seconds
#
# Revision: 0
# Processed by: cddbd v1.5.2PL0 Copyright (c) Steve Scherf et al.
# Submitted via: audiograbber 1.83.01
#
DISCID=910f941a
DTITLE=Various Artist - Obacht
DYEAR=2008
DGENRE=Folk
TTITLE0=Blaskapelle Oskar Sattler - Hodernlump-Zwiefacher
TTITLE1=Allgäuer Vierermusik - Häch oba-Jodler
TTITLE2=Plammerbergmuse - O-Polka
TTITLE3=Pongauer Viergesang - Der meineidige Bauer
TTITLE4=Dreyschlag - Seibiser Schottisch
TTITLE5=Familienmusik Hoffmann - s'Tröpferlbad
TTITLE6=Familienmusik Hoffmann - Weiß-Blau-Marsch
TTITLE7=Blaskapelle Josef Pfeffer - Lercherl-Zwiefacher
TTITLE8=Ruasskuchlmusi - Wann i mei Pfeiferl zabrocha ho - Zwiefacher
TTITLE9=Davidl Trio - Polka von den Winkler Schrammeln
TTITLE10=Geschwister Estner - Zeisei Zeisei
TTITLE11=Fritz Mayr und Hubert Huber - Andantino für Klavier KV 15b
TTITLE12=Roaner Sängerinnen - Im Feld singt die Lerch
TTITLE13=Sepp Eibl und Freunde - Halbwalzer Partie I
TTITLE14=Kraudn Sepp - Ja meine liabn Leitl
TTITLE15=Alfred Einsiedel - Hans bleib do (Dreher)
TTITLE16=Familie Raith - Bist a dou
TTITLE17=Dellnhauser Musikanten - Hopfenschmeisser
TTITLE18=Familie Sommereiner - Mei Vota is a Weber
TTITLE19=Münchner Bassetthorntrio - Ungarischer Polka
TTITLE20=Martin Kerber - Marcia de Bonaparte
TTITLE21=Roaner Sängerinnen - Der Hollensteiner Jodler
TTITLE22=Raffelemusik - Hüttlinger-Milz
TTITLE23=Brander Viergesang - Es letzte Löidl
TTITLE24=Die Tanzgeiger - Alle meine Katzen
TTITLE25=Cordon Blech - 99er Galopp
EXTD=
EXTT0=
EXTT1=
EXTT2=
EXTT3=
EXTT4=
EXTT5=
EXTT6=
EXTT7=
EXTT8=
EXTT9=
EXTT10=
EXTT11=
EXTT12=
EXTT13=
EXTT14=
EXTT15=
EXTT16=
EXTT17=
EXTT18=
EXTT19=
EXTT20=
EXTT21=
EXTT22=
EXTT23=
EXTT24=
EXTT25=
PLAYORDER=
